<svg xmlns="http://www.w3.org/2000/svg" xmlns:xlink="http://www.w3.org/1999/xlink" width="54.919" height="150.252" version="1.1" viewBox="0 0 97.29 266.17" xml:space="preserve" style="shape-rendering:geometricPrecision;text-rendering:geometricPrecision;image-rendering:optimizeQuality;fill-rule:evenodd;clip-rule:evenodd"><defs><style type="text/css">.fil1{fill:#0a43ae}.fil2{fill:#2361d3}.fil0{fill:#0a43ae;fill-rule:nonzero}</style></defs><g id="Layer_x0020_1"><metadata id="CorelCorpID_0Corel-Layer"/><path d="M79.44 0l8.5 0c5.16,0 9.35,4.19 9.35,9.35l0 8.5c0,5.16 -4.19,9.35 -9.35,9.35l-8.5 0c-5.16,0 -9.35,-4.19 -9.35,-9.35l0 -8.5c0,-5.16 4.19,-9.35 9.35,-9.35l-0 0z" class="fil0"/><g id="_1710663673360"><g><path d="M24.77 194.1l22.52 0c13.68,0 24.77,11.09 24.77,24.77l0 22.52c0,13.68 -11.09,24.77 -24.77,24.77l-22.52 0c-13.68,0 -24.77,-11.09 -24.77,-24.77l0 -22.52c0,-13.68 11.09,-24.77 24.77,-24.77z" class="fil1"/><path d="M59.68 186.22l11.26 0c6.84,0 12.39,5.55 12.39,12.39l0 11.26c0,6.84 -5.55,12.39 -12.39,12.39l-11.26 0c-6.84,0 -12.39,-5.55 -12.39,-12.39l0 -11.26c0,-6.84 5.55,-12.39 12.39,-12.39z" class="fil2"/></g></g></g></svg>